<?xml version="1.0" encoding="UTF-8"?>
<svg id="Layer_1" data-name="Layer 1" xmlns="http://www.w3.org/2000/svg" viewBox="0 0 228.52 183.97">
  <defs>
    <style>
      .cls-1 {
        fill: none;
        stroke: #000;
        stroke-linecap: round;
        stroke-linejoin: round;
        stroke-width: 8.5px;
      }
    </style>
  </defs>
  <polygon points="224.26 126.82 210.04 75.64 204.07 108.94 192.76 81.07 181.89 102.18 173.96 59.36 163.91 97.47 154.95 69.44 148.22 93.35 136.15 62.46 128.9 86.4 114.26 37.46 99.62 86.4 92.36 62.46 80.29 93.35 73.56 69.44 64.61 97.47 54.55 59.36 46.63 102.18 35.75 81.07 24.45 108.94 18.48 75.64 4.25 126.82 114.26 86.39 224.26 126.82"/>
  <path d="M9.74,61.93c1.13,0,2.46-.84,2.95-1.86,3.36-6.99,8-14.2,11.3-14.2h.08c1.73.06,3.75,2.67,5.52,7.19.9,2.27,3.62,9.2,9.23,9.2,6.05,0,11.83-8.11,19.32-27.13,2.88-7.31,6.31-11.73,9.18-11.82,2.44-.07,5.34,3.04,7.96,8.58l2.6,6.58s.03.05.04.08c.01.03.02.05.03.08,2.17,4.6,4.89,6.89,8.1,6.78,3.61-.12,7.04-3.3,10.79-10.02,2.98-5.32,5.79-12.18,8.16-18.18,2.92-7.4,6.38-11.82,9.27-11.82s6.35,4.42,9.27,11.83c6.79,17.25,12.33,27.98,18.95,28.2h.21c3.09,0,5.72-2.25,7.84-6.69,0,0,0,0,0-.01.01-.03.03-.05.04-.08.01-.03.02-.05.03-.08.01-.03.03-.05.04-.08l2.6-6.58c2.62-5.53,5.52-8.66,7.96-8.58,2.86.09,6.3,4.51,9.18,11.82,7.49,19.02,13.27,27.13,19.32,27.13,5.6,0,8.33-6.92,9.23-9.2,1.77-4.51,3.79-7.13,5.52-7.19,3.4-.1,8.21,7.49,11.61,14.68.56,1.18,1.88,1.89,3.15,1.55,1.68-.45,2.46-2.26,1.76-3.75-5.75-12.2-11.22-18.04-16.7-17.85-4.21.14-7.6,3.6-10.35,10.59-1.68,4.27-3.28,5.79-4.22,5.79-.39,0-2.55-.32-6.35-6.63-2.4-3.99-5.01-9.58-7.96-17.09-3.91-9.93-8.62-15.05-14-15.23-4.91-.15-9.29,3.79-13.04,11.73l-2.67,6.72c-1.28,2.68-2.41,3.64-3.01,3.64h-.02c-.38-.01-2.45-.42-6.27-7.26-2.82-5.05-5.55-11.7-7.85-17.53-3.98-10.11-8.79-15.23-14.27-15.23s-10.29,5.12-14.27,15.23c-2.3,5.84-5.03,12.48-7.85,17.53-3.83,6.85-5.89,7.25-6.27,7.26-.6.02-1.74-.93-3.03-3.64l-2.6-6.57-.07-.16c-3.75-7.95-8.13-11.9-13.04-11.73-5.38.18-10.09,5.3-14,15.23-2.95,7.5-5.56,13.1-7.96,17.09-3.8,6.31-5.96,6.63-6.35,6.63-.94,0-2.54-1.52-4.22-5.79-2.75-6.99-6.14-10.45-10.35-10.59-5.5-.19-10.97,5.69-16.74,17.94-.77,1.63.44,3.49,2.24,3.49h0Z"/>
  <polygon class="cls-1" points="114.25 179.71 4.25 130.6 114.26 89.87 224.26 130.27 114.25 179.71"/>
  <path class="cls-1" d="M76.21,154.59c0-12.05-.64-36.24,1.42-37.25,5.21-2.56,20.93,49.92,26.14,51.39,3.41.96,1.86-17.4,1.86-48.48"/>
  <polyline class="cls-1" points="126.33 170.06 125.13 121.21 147.29 116.11"/>
  <line class="cls-1" x1="145.41" y1="139.19" x2="125.72" y2="145.38"/>
</svg>