<?xml version="1.0" encoding="UTF-8"?>
<svg id="Layer_1" data-name="Layer 1" xmlns="http://www.w3.org/2000/svg" viewBox="0 0 730 610">
  <polygon points="671.79 382.99 632.12 240.25 615.47 333.12 583.94 255.39 553.61 314.27 531.51 194.84 503.47 301.12 478.48 222.96 459.72 289.64 426.06 203.49 405.82 270.26 365 133.76 324.18 270.26 303.94 203.49 270.28 289.64 251.51 222.96 226.53 301.12 198.48 194.84 176.39 314.27 146.06 255.39 114.53 333.12 97.88 240.25 58.21 382.99 365 270.23 671.79 382.99"/>
  <path d="M70.98,202.01c3.75,1.77,8.22.16,9.98-3.58,9.42-19.98,22.82-41.2,32.29-41.2.07,0,.14,0,.21,0,4.83.16,10.45,7.46,15.4,20.04,2.5,6.34,10.1,25.65,25.73,25.65,16.88,0,33-22.62,53.88-75.65,8.03-20.38,17.59-32.71,25.59-32.97,6.81-.2,14.9,8.49,22.21,23.92l7.26,18.35c.03.07.07.14.1.21.03.08.06.15.09.23,6.05,12.84,13.64,19.22,22.58,18.91,10.06-.33,19.62-9.21,30.09-27.94,8.3-14.85,16.16-33.97,22.75-50.71,8.13-20.65,17.8-32.97,25.85-32.97s17.72,12.33,25.85,32.98c18.95,48.11,34.4,78.04,52.84,78.65.2,0,.39,0,.59,0,8.61,0,15.96-6.28,21.86-18.65,0-.01.01-.02.02-.03.04-.08.08-.15.12-.23.03-.07.06-.14.09-.21.03-.08.07-.15.11-.23l7.26-18.35c7.31-15.43,15.39-24.14,22.21-23.92,7.99.26,17.56,12.59,25.59,32.97,20.89,53.03,37,75.65,53.88,75.65,15.63,0,23.24-19.31,25.74-25.65,4.95-12.58,10.57-19.88,15.4-20.04,9.52-.29,23.01,21.08,32.5,41.2,1.77,3.75,6.23,5.35,9.98,3.58,3.75-1.77,5.35-6.24,3.58-9.98-16.04-34.01-31.28-50.31-46.56-49.79-11.75.38-21.19,10.05-28.87,29.54-4.69,11.91-9.16,16.15-11.78,16.15-1.1,0-7.11-.89-17.71-18.5-6.7-11.13-13.97-26.72-22.21-47.65-10.91-27.69-24.04-41.97-39.05-42.47-13.69-.43-25.92,10.56-36.37,32.72l-7.44,18.75c-3.56,7.48-6.72,10.14-8.39,10.14-.02,0-.03,0-.05,0-1.05-.03-6.82-1.17-17.49-20.26-7.87-14.08-15.48-32.62-21.89-48.89-11.1-28.19-24.5-42.48-39.81-42.48s-28.71,14.29-39.81,42.48c-6.41,16.28-14.02,34.81-21.89,48.89-10.67,19.09-16.44,20.23-17.49,20.26-1.66.06-4.84-2.58-8.44-10.14l-7.25-18.32-.19-.44c-10.45-22.16-22.67-33.19-36.37-32.72-15.01.49-28.15,14.78-39.05,42.47-8.24,20.93-15.51,36.52-22.21,47.65-10.6,17.6-16.61,18.5-17.71,18.5-2.62,0-7.09-4.24-11.78-16.15-7.68-19.49-17.12-29.15-28.87-29.54-15.29-.54-30.52,15.79-46.56,49.79-1.77,3.75-.16,8.22,3.58,9.98Z"/>
  <path d="M364.99,270.23L32.98,392.27l202.49,114.92,27.38,15.54,47.59,27.01,34.72,19.71,14.91,8.46,4.93,2.8,18.78-10.66,29.74-16.88,283.51-160.9-332.03-122.04ZM268.01,502.67l-1.18-51.29,29.99,67.64-28.81-16.35ZM491.55,437.63c-4.16-8-14.02-11.11-22.01-6.95l-56.03,29.13v-39.69l70.86-35.43c8.06-4.04,11.33-13.84,7.29-21.9-4.03-8.06-13.83-11.33-21.89-7.29l-76.87,38.44c-7.42,3.71-12.03,11.17-12.03,19.46v135.31l-15.88,9.01-15.5-8.8v-138.88c0-9.01-7.31-16.32-16.32-16.32s-16.32,7.31-16.32,16.32v73.67l-52.21-117.73c-3.24-7.33-11.27-11.38-19.09-9.64-7.82,1.75-13.37,8.84-13.18,16.85l2.55,110.71-154.57-87.74,284.64-104.62,284.65,104.62-236.13,134.02v-33.58l71.09-36.97c7.99-4.16,11.11-14.01,6.95-22Z"/>
</svg>