<?xml version="1.0" encoding="UTF-8"?>
<svg id="Layer_1" xmlns="http://www.w3.org/2000/svg" version="1.1" viewBox="0 0 266.7 216.1">
  <!-- Generator: Adobe Illustrator 29.0.1, SVG Export Plug-In . SVG Version: 2.1.0 Build 192)  -->
  <defs>
    <style>
      .st0 {
        fill: none;
        stroke: #000;
        stroke-linecap: round;
        stroke-linejoin: round;
        stroke-width: 8.5px;
      }
    </style>
  </defs>
  <polygon points="243.6 141 229.3 89.9 223.4 123.2 212.1 95.3 201.2 116.4 193.3 73.6 183.2 111.7 174.2 83.7 167.5 107.6 155.5 76.7 148.2 100.6 133.6 51.7 118.9 100.6 111.7 76.7 99.6 107.6 92.9 83.7 83.9 111.7 73.8 73.6 65.9 116.4 55.1 95.3 43.7 123.2 37.8 89.9 23.6 141 133.6 100.6 243.6 141"/>
  <path d="M29,76.2c1.1,0,2.5-.8,2.9-1.9,3.4-7,8-14.2,11.3-14.2h0c1.7,0,3.7,2.7,5.5,7.2.9,2.3,3.6,9.2,9.2,9.2s11.8-8.1,19.3-27.1c2.9-7.3,6.3-11.7,9.2-11.8,2.4,0,5.3,3,8,8.6l2.6,6.6s0,0,0,0c0,0,0,0,0,0,2.2,4.6,4.9,6.9,8.1,6.8,3.6-.1,7-3.3,10.8-10,3-5.3,5.8-12.2,8.2-18.2,2.9-7.4,6.4-11.8,9.3-11.8s6.4,4.4,9.3,11.8c6.8,17.3,12.3,28,18.9,28.2h.2c3.1,0,5.7-2.3,7.8-6.7,0,0,0,0,0,0,0,0,0,0,0,0,0,0,0,0,0,0,0,0,0,0,0,0l2.6-6.6c2.6-5.5,5.5-8.7,8-8.6,2.9,0,6.3,4.5,9.2,11.8,7.5,19,13.3,27.1,19.3,27.1s8.3-6.9,9.2-9.2c1.8-4.5,3.8-7.1,5.5-7.2,3.4-.1,8.2,7.5,11.6,14.7s1.9,1.9,3.1,1.6,2.5-2.3,1.8-3.8c-5.8-12.2-11.2-18-16.7-17.9-4.2.1-7.6,3.6-10.4,10.6-1.7,4.3-3.3,5.8-4.2,5.8s-2.5-.3-6.4-6.6c-2.4-4-5-9.6-8-17.1-3.9-9.9-8.6-15-14-15.2-4.9-.2-9.3,3.8-13,11.7l-2.7,6.7c-1.3,2.7-2.4,3.6-3,3.6h0c-.4,0-2.4-.4-6.3-7.3-2.8-5-5.6-11.7-7.8-17.5-4-10.1-8.8-15.2-14.3-15.2s-10.3,5.1-14.3,15.2c-2.3,5.8-5,12.5-7.8,17.5-3.8,6.8-5.9,7.3-6.3,7.3-.6,0-1.7-.9-3-3.6l-2.6-6.6v-.2c-3.8-7.9-8.2-11.9-13.1-11.7-5.4.2-10.1,5.3-14,15.2-3,7.5-5.6,13.1-8,17.1-3.8,6.3-6,6.6-6.4,6.6-.9,0-2.5-1.5-4.2-5.8-2.8-7-6.1-10.5-10.4-10.6-5.5-.2-11,5.7-16.7,17.9-.8,1.6.4,3.5,2.2,3.5h0Z"/>
  <polygon class="st0" points="133.6 193.9 23.6 144.8 133.6 104.1 243.6 144.5 133.6 193.9"/>
  <path class="st0" d="M95.5,168.8c0-12-.6-36.2,1.4-37.2,5.2-2.6,20.9,49.9,26.1,51.4,3.4,1,1.9-17.4,1.9-48.5"/>
  <polyline class="st0" points="145.6 184.3 144.4 135.4 166.6 130.3"/>
  <line class="st0" x1="164.7" y1="153.4" x2="145" y2="159.6"/>
</svg>